<svg height="512" viewBox="0 0 176 176" width="512" xmlns="http://www.w3.org/2000/svg"><g id="Layer_2" data-name="Layer 2"><g id="meetup"><rect id="background" fill="#ed1c40" height="176" rx="24" width="176"/><path id="icon" d="m85 51.76c-5.25.31-12.23-9.63-24-4.91-11.27 4.53-12.18 13.07-24.46 53.06-2.87 9.35-6.06 16.39-.44 23.63 4.71 6.08 13.14 7.46 20 4 6.06-3 10.81-22.79 24-54.84 2.11-4.13 10.1-3.7 8.9 4.47 0 2.66-12.46 32.39-12.46 33.88-1.5 10.5 12.29 11.54 16.46 1.78.45-.44 2.23-4.45 5.79-11.59 17.47-35 10.89-21.37 16-31.65 1.77-2.23 3.55-3.57 4.89-3.57 2.22 0 3.56 1.79 3.11 4.91 0 3.58-13.16 27.09-16.9 38.34-1.88 9.39 3 17.77 11.12 22.28 2.52 1.69 17.84 4.54 22.69.89 5.06-1.68 3.64-9-.44-9.8-4.44-2.23-6.62-.34-12.46-2.67-12.8-5.15 15.97-47.67 14.3-61.08-1.33-8.47-5.79-12.48-14.68-12.92-5.3 0-5.88 2.41-8.45 2.12s-7.93-6.4-15.57-6.3-13.23 9.72-17.4 9.97z" fill="#fff"/></g></g></svg>